<svg width="56" height="56" viewBox="0 0 56 56" fill="none" xmlns="http://www.w3.org/2000/svg">
<circle cx="28" cy="28" r="28" fill="#CD1515"/>
<path d="M27.8252 18.1204C28.0535 18.6758 28.5549 19.1036 29.1554 19.1036C29.9309 19.1036 30.5394 18.4083 30.2796 17.6776C30.1332 17.266 29.9502 16.8824 29.7306 16.5266C29.2747 15.7707 28.7047 15.1436 28.0208 14.6454C27.3368 14.1472 26.5564 13.7692 25.6796 13.5115C24.8027 13.2538 23.8733 13.125 22.8912 13.125C21.4532 13.125 20.173 13.3827 19.0506 13.8981C17.9458 14.3963 17.0164 15.0835 16.2623 15.9597C15.5257 16.8358 14.9645 17.8666 14.5787 19.052C14.1929 20.2203 14 21.4744 14 22.8144C14 24.1545 14.1754 25.4086 14.5261 26.5768C14.8944 27.745 15.438 28.7586 16.157 29.6176C16.8761 30.4766 17.7792 31.1552 18.8665 31.6534C19.9538 32.1345 21.2252 32.375 22.6808 32.375C25.0833 32.375 26.9773 31.7308 28.3627 30.4423C29.5488 29.3392 29.9715 28.0882 30.2226 26.2958C30.297 25.7646 29.9208 25.2798 29.3907 25.1978C28.8092 25.1078 28.2829 25.5375 28.1554 26.112C28.0761 26.4691 27.9699 26.8131 27.8366 27.1437C27.5736 27.7966 27.2053 28.3635 26.7318 28.8445C26.2758 29.3084 25.7234 29.6778 25.0746 29.9526C24.4432 30.2103 23.7155 30.3392 22.8912 30.3392C21.7689 30.3392 20.8043 30.133 19.9976 29.7207C19.1909 29.3084 18.5245 28.7586 17.9984 28.0715C17.4898 27.3671 17.1128 26.551 16.8673 25.6233C16.6218 24.6784 16.499 23.682 16.499 22.634C16.499 21.672 16.6218 20.7443 16.8673 19.8509C17.1128 18.9576 17.4898 18.1673 17.9984 17.4801C18.5245 16.7757 19.1822 16.2174 19.9713 15.8051C20.778 15.3927 21.7425 15.1866 22.8649 15.1866C24.1802 15.1866 25.3113 15.513 26.2583 16.1658C26.9633 16.643 27.4856 17.2945 27.8252 18.1204Z" fill="white"/>
<path d="M29.5969 24.5C28.7149 24.5 28 25.2149 28 26.0969L28 41.7678C28 42.3793 28.4957 42.875 29.1072 42.875C29.7187 42.875 30.2144 42.3793 30.2144 41.7678L30.2144 28.1603C30.2144 28.1428 30.2286 28.1287 30.246 28.1287C30.257 28.1287 30.2671 28.1343 30.2729 28.1436L38.9583 42.0992C39.2586 42.5817 39.7866 42.875 40.3549 42.875C41.2635 42.875 42 42.1385 42 41.2299V25.6072C42 24.9957 41.5043 24.5 40.8928 24.5C40.2813 24.5 39.7856 24.9957 39.7856 25.6072V39.3691C39.7856 39.3866 39.7714 39.4007 39.754 39.4007C39.743 39.4007 39.7329 39.3951 39.7271 39.3858L30.9535 25.2546C30.6622 24.7854 30.1492 24.5 29.5969 24.5Z" fill="white"/>
</svg>
